Note. Re-Encode from an Xvid flie coverted to DVD, Quality is reasonabley good

Format                                   : MPEG-4
Format profile                           : Base Media / Version 2
Codec ID                                 : mp42
File size                                : 697 MiB
Duration                                 : 1h 43mn
Overall bit rate mode                    : Variable
Overall bit rate                         : 942 Kbps

Video
ID                                       : 1
Format                                   : AVC
Format/Info                              : Advanced Video Codec
Format profile                           : High@L3.0
Format settings, CABAC                   : Yes
Format settings, ReFrames                : 4 frames
Codec ID                                 : avc1
Codec ID/Info                            : Advanced Video Coding
Duration                                 : 1h 43mn
Bit rate mode                            : Variable
Bit rate                                 : 844 Kbps
Maximum bit rate                         : 3 536 Kbps
Width                                    : 720 pixels
Height                                   : 388 pixels
Display aspect ratio                     : 1.85:1
Frame rate mode                          : Constant
Frame rate                               : 25.000 fps
Standard                                 : PAL
Color space                              : YUV
Chroma subsampling                       : 4:2:0
Bit depth                                : 8 bits
Scan type                                : Progressive
Bits/(Pixel*Frame)                       : 0.121
Stream size                              : 624 MiB (90%)
Language                                 : English

Audio
ID                                       : 2
Format                                   : AAC
Format/Info                              : Advanced Audio Codec
Format profile                           : LC
Codec ID                                 : 40
Duration                                 : 1h 43mn
Bit rate mode                            : Variable
Bit rate                                 : 94.0 Kbps
Maximum bit rate                         : 103 Kbps
Channel(s)                               : 2 channels
Channel positions                        : Front: L R
Sampling rate                            : 48.0 KHz
Compression mode                         : Lossy
Stream size                              : 69.5 MiB (10%)
Title                                    : MP3 2-ch 48KHz
Language                                 : English
Subtitles                                : None

IMDB.  http://www.imdb.com/title/tt0051713/ 

Storyline.

Joe 'Tom' Yateley is an ex-convict. Trying to leave his past behind, he decides to starts working for the Hawlett Trucking company, which transports gravel. It's an aggressive company, where speed is everything. Doing too less runs in a day? You're out. Red is the most experienced trucker, he can do 18 runs in a day. Tom soon makes friends with Lucy, the secretary, and Gino, a driver. But the record of Red intrigues him and he wants to break it. Gino advises against it, but he helps Tom when he wants to go through with it. Soon trouble begins when Red and the other drivers form an united front against Tom. Just when Tom has enough and decides to pack his bags, Lucy tells him Gino had a terrible accident. She also tells about the corruption of Hawlett Trucking.

Sreens.  http://bayimg.com/OamMcAaen

         http://bayimg.com/oamMEaAEn

Enjoy.